<?xml version="1.0" encoding="UTF-8"?>
<svg xmlns="http://www.w3.org/2000/svg" viewBox="0 0 1000 1000" width="1000" height="1000">
  <g fill="none" stroke="#000000" stroke-linecap="round" stroke-linejoin="round">
    <path d="M 280.0 122.0 L 280.0 238.0 L 280.0 331.0 L 280.0 862.0" stroke-width="4" />
    <circle cx="280.0" cy="122.0" r="8" fill="#000000" stroke="none" />
    <circle cx="280.0" cy="862.0" r="8" fill="#000000" stroke="none" />
    <path d="M 335.0 82.0 L 335.0 206.0 L 295.0 310.0 L 295.0 846.0" stroke-width="4" />
    <circle cx="335.0" cy="82.0" r="8" fill="#000000" stroke="none" />
    <circle cx="295.0" cy="846.0" r="8" fill="#000000" stroke="none" />
    <path d="M 390.0 119.0 L 390.0 222.0 L 430.0 320.0 L 430.0 850.0" stroke-width="4" />
    <circle cx="390.0" cy="119.0" r="8" fill="#000000" stroke="none" />
    <circle cx="430.0" cy="850.0" r="8" fill="#000000" stroke="none" />
    <path d="M 445.0 102.0 L 445.0 231.0 L 405.0 342.0 L 405.0 885.0" stroke-width="4" />
    <circle cx="445.0" cy="102.0" r="8" fill="#000000" stroke="none" />
    <circle cx="405.0" cy="885.0" r="8" fill="#000000" stroke="none" />
    <path d="M 500.0 136.0 L 500.0 277.0 L 540.0 370.0 L 540.0 883.0" stroke-width="4" />
    <circle cx="500.0" cy="136.0" r="8" fill="#000000" stroke="none" />
    <circle cx="540.0" cy="883.0" r="8" fill="#000000" stroke="none" />
    <path d="M 555.0 112.0 L 555.0 201.0 L 515.0 289.0 L 515.0 856.0" stroke-width="4" />
    <circle cx="555.0" cy="112.0" r="8" fill="#000000" stroke="none" />
    <circle cx="515.0" cy="856.0" r="8" fill="#000000" stroke="none" />
    <path d="M 610.0 83.0 L 610.0 214.0 L 570.0 290.0 L 570.0 860.0" stroke-width="4" />
    <circle cx="610.0" cy="83.0" r="8" fill="#000000" stroke="none" />
    <circle cx="570.0" cy="860.0" r="8" fill="#000000" stroke="none" />
    <path d="M 665.0 113.0 L 665.0 221.0 L 665.0 332.0 L 665.0 889.0" stroke-width="4" />
    <circle cx="665.0" cy="113.0" r="8" fill="#000000" stroke="none" />
    <circle cx="665.0" cy="889.0" r="8" fill="#000000" stroke="none" />
  </g>
</svg>
