<?xml version="1.0" encoding="UTF-8"?>
<svg xmlns="http://www.w3.org/2000/svg" viewBox="0 0 1000 1000" width="1000" height="1000">
  <g fill="none" stroke="#000000" stroke-linecap="round" stroke-linejoin="round">
    <circle cx="500" cy="500" r="117" stroke-width="5" />
    <circle cx="500" cy="500" r="212" stroke-width="3" />
    <circle cx="500" cy="500" r="343" stroke-width="4" />
    <path d="M 627.0 500.0 L 936.0 500.0" stroke-width="4" />
    <circle cx="936.0" cy="500.0" r="9" fill="#000000" stroke="none" />
    <path d="M 589.8 589.8 L 804.1 786.4" stroke-width="4" />
    <circle cx="804.1" cy="786.4" r="9" fill="#000000" stroke="none" />
    <path d="M 500.0 627.0 L 500.0 934.0" stroke-width="4" />
    <circle cx="500.0" cy="934.0" r="9" fill="#000000" stroke="none" />
    <path d="M 410.2 589.8 L 193.1 822.4" stroke-width="4" />
    <circle cx="193.1" cy="822.4" r="9" fill="#000000" stroke="none" />
    <path d="M 373.0 500.0 L 63.0 500.0" stroke-width="4" />
    <circle cx="63.0" cy="500.0" r="9" fill="#000000" stroke="none" />
    <path d="M 410.2 410.2 L 205.8 186.8" stroke-width="4" />
    <circle cx="205.8" cy="186.8" r="9" fill="#000000" stroke="none" />
    <path d="M 500.0 373.0 L 500.0 116.0" stroke-width="4" />
    <circle cx="500.0" cy="116.0" r="9" fill="#000000" stroke="none" />
    <path d="M 589.8 410.2 L 809.0 176.1" stroke-width="4" />
    <circle cx="809.0" cy="176.1" r="9" fill="#000000" stroke="none" />
  </g>
</svg>
