<?xml version="1.0" encoding="UTF-8"?>
<svg xmlns="http://www.w3.org/2000/svg" viewBox="0 0 1000 1000" width="1000" height="1000">
  <g fill="none" stroke="#000000" stroke-linecap="round" stroke-linejoin="round">
    <circle cx="500" cy="500" r="139" stroke-width="5" />
    <circle cx="500" cy="500" r="233" stroke-width="3" />
    <circle cx="500" cy="500" r="358" stroke-width="4" />
    <path d="M 649.0 500.0 L 971.0 500.0" stroke-width="4" />
    <circle cx="971.0" cy="500.0" r="9" fill="#000000" stroke="none" />
    <path d="M 629.0 574.5 L 862.9 720.0" stroke-width="4" />
    <circle cx="862.9" cy="720.0" r="9" fill="#000000" stroke="none" />
    <path d="M 574.5 629.0 L 723.5 884.5" stroke-width="4" />
    <circle cx="723.5" cy="884.5" r="9" fill="#000000" stroke="none" />
    <path d="M 500.0 649.0 L 500.0 948.0" stroke-width="4" />
    <circle cx="500.0" cy="948.0" r="9" fill="#000000" stroke="none" />
    <path d="M 425.5 629.0 L 288.0 884.5" stroke-width="4" />
    <circle cx="288.0" cy="884.5" r="9" fill="#000000" stroke="none" />
    <path d="M 371.0 574.5 L 144.1 726.0" stroke-width="4" />
    <circle cx="144.1" cy="726.0" r="9" fill="#000000" stroke="none" />
    <path d="M 351.0 500.0 L 51.0 500.0" stroke-width="4" />
    <circle cx="51.0" cy="500.0" r="9" fill="#000000" stroke="none" />
    <path d="M 371.0 425.5 L 99.9 279.0" stroke-width="4" />
    <circle cx="99.9" cy="279.0" r="9" fill="#000000" stroke="none" />
    <path d="M 425.5 371.0 L 275.5 111.2" stroke-width="4" />
    <circle cx="275.5" cy="111.2" r="9" fill="#000000" stroke="none" />
    <path d="M 500.0 351.0 L 500.0 100.0" stroke-width="4" />
    <circle cx="500.0" cy="100.0" r="9" fill="#000000" stroke="none" />
    <path d="M 574.5 371.0 L 721.5 89.5" stroke-width="4" />
    <circle cx="721.5" cy="89.5" r="9" fill="#000000" stroke="none" />
    <path d="M 629.0 425.5 L 857.7 272.0" stroke-width="4" />
    <circle cx="857.7" cy="272.0" r="9" fill="#000000" stroke="none" />
  </g>
</svg>
